<?xml version="1.0" encoding="utf-8"?>
<!-- Generator: Adobe Illustrator 20.1.0, SVG Export Plug-In . SVG Version: 6.00 Build 0)  -->
<svg version="1.1" id="Layer_1" xmlns="http://www.w3.org/2000/svg" xmlns:xlink="http://www.w3.org/1999/xlink" x="0px" y="0px"
	 viewBox="0 0 95.1 100.5" style="enable-background:new 0 0 95.1 100.5;" xml:space="preserve">
<style type="text/css">
	.st0{fill:#606874;}
	.st1{fill:url(#SVGID_1_);}
	.st2{opacity:0.5;fill:#EAEBEC;enable-background:new    ;}
	.st3{fill:url(#SVGID_2_);}
	.st4{fill:#69717E;}
	.st5{fill:url(#SVGID_3_);}
	.st6{fill:url(#SVGID_4_);}
	.st7{fill:url(#SVGID_5_);}
	.st8{fill:url(#SVGID_6_);}
	.st9{fill:url(#SVGID_7_);}
	.st10{fill:url(#SVGID_8_);}
</style>
<g>
	<path class="st0" d="M48,46.4c-0.3,0-0.7-0.1-0.9-0.4c-0.5-0.5-0.6-1.3-0.1-1.9l0.1-0.1c0.5-0.5,1.3-0.6,1.9-0.1
		c0.5,0.5,0.6,1.3,0.1,1.9L48.9,46C48.7,46.3,48.4,46.4,48,46.4z M56.1,41.8h-0.2c-0.7,0-1.3-0.6-1.3-1.3c0-0.7,0.6-1.3,1.3-1.3l0,0
		h0.2c0.7,0,1.3,0.6,1.3,1.3S56.8,41.8,56.1,41.8z M51.3,42.7h-0.2c-0.7,0-1.3-0.6-1.3-1.3c0-0.7,0.6-1.3,1.3-1.3l0,0h0.2
		c0.7,0,1.3,0.6,1.3,1.3S52,42.7,51.3,42.7z M46.6,39.1c-0.3,0-0.6-0.1-0.8-0.3l-0.2-0.1c-0.6-0.5-0.7-1.3-0.2-1.9s1.3-0.7,1.9-0.2
		l0.2,0.1c0.6,0.4,0.7,1.3,0.3,1.9C47.4,38.9,47,39.1,46.6,39.1z M70.2,38.1c-0.5,0-0.9-0.3-1.2-0.7c-0.3-0.6-0.1-1.5,0.5-1.8
		l0.2-0.1c0.6-0.4,1.5-0.1,1.8,0.5c0.4,0.6,0.1,1.5-0.5,1.8l-0.2,0.1C70.7,38,70.5,38.1,70.2,38.1z M74.4,35.3
		c-0.4,0-0.8-0.2-1.1-0.5c-0.4-0.6-0.3-1.4,0.3-1.9l0.2-0.1c0.6-0.4,1.4-0.3,1.9,0.3c0.4,0.6,0.3,1.4-0.3,1.9l-0.2,0.1
		C75,35.3,74.7,35.3,74.4,35.3z M43.6,35.1c-0.6,0-1.1-0.4-1.3-0.9l-0.1-0.3c-0.2-0.7,0.2-1.4,0.9-1.6c0.7-0.2,1.4,0.2,1.6,0.9v0.2
		c0.2,0.7-0.2,1.4-0.9,1.7C43.9,35.1,43.8,35.1,43.6,35.1z M53.2,32.9c-0.6,0-1.1-0.4-1.3-1v-0.2c-0.2-0.7,0.2-1.4,0.9-1.6
		c0.7-0.2,1.4,0.2,1.6,0.9l0.1,0.2c0.2,0.7-0.2,1.4-1,1.6C53.4,32.9,53.3,32.9,53.2,32.9z M53.2,37.1c-0.6,0-1.1-0.4-1.3-1v-0.2
		c-0.2-0.7,0.2-1.4,0.9-1.6c0.7-0.2,1.4,0.2,1.6,0.9l0.1,0.2c0.2,0.7-0.2,1.4-1,1.6C53.4,37.1,53.3,37.1,53.2,37.1z M78.2,32.1
		c-0.3,0-0.7-0.1-0.9-0.4c-0.5-0.5-0.5-1.4,0-1.9l0.2-0.2c0.5-0.5,1.4-0.5,1.9,0s0.5,1.4,0,1.9l-0.1,0.1
		C78.9,31.9,78.5,32.1,78.2,32.1z M44.8,30.6c-0.4,0-0.8-0.2-1.1-0.5c-0.5-0.6-0.3-1.4,0.2-1.9c0.1-0.1,0.1-0.1,0.2-0.2
		c0.6-0.4,1.4-0.3,1.9,0.3c0.4,0.6,0.3,1.4-0.3,1.9l-0.1,0.1C45.4,30.5,45.1,30.6,44.8,30.6z M49.8,29.6c-0.1,0-0.2,0-0.3,0h-0.2
		c-0.7-0.1-1.2-0.8-1.1-1.5s0.8-1.2,1.5-1.1c0.1,0,0.2,0,0.3,0c0.7,0.1,1.2,0.8,1,1.6C51,29.2,50.4,29.6,49.8,29.6z M81.5,28.3
		c-0.3,0-0.6-0.1-0.8-0.3c-0.6-0.5-0.7-1.3-0.2-1.9l0.1-0.2c0.4-0.6,1.3-0.7,1.9-0.2c0.6,0.4,0.7,1.3,0.2,1.9l-0.1,0.2
		C82.3,28.1,81.9,28.3,81.5,28.3z M86.8,19.8c-0.2,0-0.4,0-0.6-0.1c-0.7-0.3-0.9-1.1-0.6-1.8l0.1-0.2c0.3-0.7,1.1-0.9,1.8-0.6
		c0.7,0.3,0.9,1.1,0.6,1.8L88,19.1C87.8,19.6,87.3,19.8,86.8,19.8z M84.3,24.6c-0.2,0-0.4,0-0.6-0.1c-0.7-0.3-0.9-1.1-0.6-1.8
		l0.1-0.2c0.3-0.7,1.1-0.9,1.8-0.6s0.9,1.1,0.6,1.8l-0.1,0.2C85.3,24.3,84.8,24.6,84.3,24.6z M88.9,13.9L88.9,13.9L88.9,13.9z
		 M61,41.4h-0.2c-0.7,0-1.3-0.6-1.3-1.3c0-0.7,0.6-1.3,1.3-1.3l0,0H61c0.7,0,1.3,0.6,1.3,1.3S61.7,41.4,61,41.4z M66.2,40.1H66
		c-0.7,0-1.3-0.6-1.3-1.3c0-0.7,0.6-1.3,1.3-1.3l0,0h0.2c0.7,0,1.3,0.6,1.3,1.3S66.9,40.1,66.2,40.1z"/>
	<g>
		
			<linearGradient id="SVGID_1_" gradientUnits="userSpaceOnUse" x1="79.316" y1="-323.3828" x2="95.1997" y2="-323.3828" gradientTransform="matrix(1 0 0 -1 0 -315)">
			<stop  offset="0" style="stop-color:#00AED4"/>
			<stop  offset="0.1722" style="stop-color:#0AC0D3"/>
			<stop  offset="0.5073" style="stop-color:#1ADED1"/>
			<stop  offset="0.795" style="stop-color:#24F0D0"/>
			<stop  offset="1" style="stop-color:#28F7D0"/>
		</linearGradient>
		<path class="st1" d="M91.2,13.2c-2.2,2-11-1.9-11.9-2.5c2-1.5,4.8-1.9,7.2-1.1c1.7,0.6,3.1,1.7,4.4,2.8c-0.1-1.6-0.2-3.2,0.1-4.8
			S92.4,3,94.1,3C97,3,92.8,11.7,91.2,13.2z"/>
	</g>
	<ellipse class="st2" cx="24.2" cy="93.7" rx="23.6" ry="1.6"/>
	
		<linearGradient id="SVGID_2_" gradientUnits="userSpaceOnUse" x1="20.6579" y1="-409.7744" x2="73.1007" y2="-362.4067" gradientTransform="matrix(1 0 0 -1 0 -315)">
		<stop  offset="0" style="stop-color:#CBCBCB"/>
		<stop  offset="9.469968e-02" style="stop-color:#D5D6D6"/>
		<stop  offset="0.264" style="stop-color:#E1E2E3"/>
		<stop  offset="0.49" style="stop-color:#E8E9EA"/>
		<stop  offset="1" style="stop-color:#EAEBEC"/>
	</linearGradient>
	<rect x="24.8" y="48.5" class="st3" width="42.9" height="46.4"/>
	
		<rect x="1.9" y="72.7" transform="matrix(0.5134 -0.8582 0.8582 0.5134 -58.6028 44.4038)" class="st4" width="15.9" height="2.4"/>
	
		<rect x="-8.2" y="73.2" transform="matrix(0.5134 -0.8582 0.8582 0.5134 -58.5796 47.9749)" class="st4" width="42.5" height="4.9"/>
	
		<linearGradient id="SVGID_3_" gradientUnits="userSpaceOnUse" x1="28.4991" y1="-363.0161" x2="70.6488" y2="-372.5395" gradientTransform="matrix(1 0 0 -1 0 -315)">
		<stop  offset="0" style="stop-color:#CBCBCB"/>
		<stop  offset="9.469968e-02" style="stop-color:#D5D6D6"/>
		<stop  offset="0.264" style="stop-color:#E1E2E3"/>
		<stop  offset="0.49" style="stop-color:#E8E9EA"/>
		<stop  offset="1" style="stop-color:#EAEBEC"/>
	</linearGradient>
	<polygon class="st5" points="24.8,51.7 66.9,61.7 67.5,51.8 	"/>
	<g>
		
			<linearGradient id="SVGID_4_" gradientUnits="userSpaceOnUse" x1="31.0546" y1="-406.527" x2="31.0546" y2="-370.446" gradientTransform="matrix(1 0 0 -1 0 -315)">
			<stop  offset="0" style="stop-color:#EAEBEC"/>
			<stop  offset="1" style="stop-color:#FFFFFF"/>
		</linearGradient>
		<rect x="30" y="57.1" class="st6" width="2.2" height="27.1"/>
		
			<linearGradient id="SVGID_5_" gradientUnits="userSpaceOnUse" x1="38.4546" y1="-406.527" x2="38.4546" y2="-370.446" gradientTransform="matrix(1 0 0 -1 0 -315)">
			<stop  offset="0" style="stop-color:#EAEBEC"/>
			<stop  offset="1" style="stop-color:#FFFFFF"/>
		</linearGradient>
		<rect x="37.4" y="57.1" class="st7" width="2.2" height="27.1"/>
		
			<linearGradient id="SVGID_6_" gradientUnits="userSpaceOnUse" x1="45.9546" y1="-406.527" x2="45.9546" y2="-370.446" gradientTransform="matrix(1 0 0 -1 0 -315)">
			<stop  offset="0" style="stop-color:#EAEBEC"/>
			<stop  offset="1" style="stop-color:#FFFFFF"/>
		</linearGradient>
		<rect x="44.9" y="57.1" class="st8" width="2.2" height="27.1"/>
		
			<linearGradient id="SVGID_7_" gradientUnits="userSpaceOnUse" x1="53.3546" y1="-406.527" x2="53.3546" y2="-370.446" gradientTransform="matrix(1 0 0 -1 0 -315)">
			<stop  offset="0" style="stop-color:#EAEBEC"/>
			<stop  offset="1" style="stop-color:#FFFFFF"/>
		</linearGradient>
		<rect x="52.3" y="57.1" class="st9" width="2.2" height="27.1"/>
		
			<linearGradient id="SVGID_8_" gradientUnits="userSpaceOnUse" x1="60.8546" y1="-406.527" x2="60.8546" y2="-370.446" gradientTransform="matrix(1 0 0 -1 0 -315)">
			<stop  offset="0" style="stop-color:#EAEBEC"/>
			<stop  offset="1" style="stop-color:#FFFFFF"/>
		</linearGradient>
		<rect x="59.8" y="57.1" class="st10" width="2.2" height="27.1"/>
	</g>
</g>
</svg>
